<svg width="37" height="50" viewBox="0 0 37 50" fill="none" xmlns="http://www.w3.org/2000/svg">
<path d="M33.8353 0.14893C31.1443 -0.0828741 28.3996 -0.0431355 25.7086 0.261521C23.1654 0.54962 20.6458 1.07615 18.237 1.82785C13.6109 3.26835 9.47535 5.49035 6.27708 8.25213C5.70596 8.74554 5.16843 9.2522 4.67122 9.76548C3.9422 10.4543 3.28037 11.2192 2.69245 12.0504C2.16501 12.8021 1.71147 13.5936 1.33184 14.4115C0.397892 16.3156 -0.0522855 18.2727 0.00482658 20.1966C0.00146704 20.3192 0.0115461 20.4417 0.0115461 20.5642V28.9423C0.0115461 31.6743 0.572589 34.0089 1.75514 36.0818C3.24678 38.6946 6.9389 41.9332 8.89079 43.4333C9.74411 44.089 10.4832 44.6718 11.2022 45.2348C11.6758 45.6057 12.126 45.9567 12.5728 46.3044C13.4026 46.9501 14.2224 47.5727 15.1429 48.2449C15.667 48.6522 16.1843 49.043 16.7823 49.4768C17.256 49.8179 17.8137 50 18.4016 50C18.4117 50 18.4218 50 18.4319 50C19.0299 49.9934 19.5943 49.8013 20.068 49.4437L21.1833 48.6026C21.2472 48.5595 21.3143 48.5131 21.3748 48.4635L24.1196 46.3938L28.0267 43.4433C28.0334 43.4399 28.0368 43.4366 28.0435 43.43C29.9954 41.9266 33.7245 38.688 35.2127 36.0785C36.3953 34.0055 37 31.6709 37 28.939V9.74892C37 9.7423 37 9.73236 37 9.72574V3.50015C37 3.48028 37 3.46041 37 3.43723V0.417161L33.8353 0.14893ZM9.29058 38.4098C7.61081 36.9163 6.01167 35.2341 5.34312 34.0618C4.5234 32.6246 4.1169 30.9523 4.1169 28.9489V27.8727C4.1169 27.823 4.1169 27.77 4.1169 27.717V26.813H9.29058V38.4098ZM9.29058 16.2858V23.4684H4.1169V20.2165V20.2099C4.28487 18.7528 4.54356 17.3388 5.15835 16.0341C5.73283 14.9148 6.56599 13.7956 7.60073 12.7094C8.42717 11.9411 9.34769 11.302 10.3824 10.8185C9.6702 12.3981 9.29058 14.236 9.29058 16.2858ZM26.525 3.20874C26.525 3.14251 26.525 3.06966 26.5989 3.06966H29.4847C29.5553 3.06966 29.5822 3.14251 29.5822 3.20874V3.8876C29.5822 3.95382 29.5553 3.96376 29.4847 3.96376H27.5664V4.99032H29.3268C29.3974 4.99032 29.4142 5.03999 29.4142 5.10622V5.75858C29.4142 5.82481 29.4007 5.91753 29.3268 5.91753H27.5664V6.81163H29.5284C29.599 6.81163 29.6829 6.91098 29.6829 6.97721V7.65606C29.6829 7.72229 29.599 7.73554 29.5284 7.73554H26.5989C26.5283 7.73554 26.525 7.72229 26.525 7.65606V3.20874ZM22.7657 3.06966H25.6448C25.7153 3.06966 25.7523 3.14251 25.7523 3.20874V3.8876C25.7523 3.95382 25.7187 3.96376 25.6448 3.96376H23.7702V4.99032H25.5037C25.5742 4.99032 25.6179 5.03999 25.6179 5.10622V5.75858C25.6179 5.82481 25.5742 5.91753 25.5037 5.91753H23.7702V7.65937C23.7702 7.7256 23.6828 7.73885 23.6123 7.73885H22.7657C22.6951 7.73885 22.6951 7.7256 22.6951 7.65937V3.20874C22.6951 3.14251 22.6951 3.06966 22.7657 3.06966ZM12.7845 16.2858C12.7845 15.4679 12.8382 14.7029 12.9793 13.9942C13.9402 11.3186 16.5237 9.39459 19.564 9.39459C21.8048 9.39459 23.8541 10.4245 25.1711 12.1762C24.4757 12.7326 23.8206 13.3551 23.2091 14.0174C20.7701 16.6633 19.2314 19.8953 18.7611 23.4717H12.7845V16.2858ZM25.4768 40.1748L18.8316 45.1884C18.5898 45.3705 18.2538 45.3739 18.0086 45.1983C16.4833 44.0956 15.2638 43.1254 13.8293 42.0028C13.4833 41.7312 13.1171 41.4564 12.7811 41.1716V26.813H18.6402C18.8115 29.6609 19.6581 32.3001 21.1128 34.6943C22.3424 36.7176 23.9751 38.4661 25.9001 39.847C25.759 39.9629 25.6145 40.0689 25.4768 40.1748ZM32.7401 28.9456C32.7401 30.949 32.3504 32.6213 31.5307 34.0585C30.9864 35.0122 29.8274 36.3004 28.5172 37.5521C26.693 36.3799 25.1543 34.8202 24.0322 32.9724C22.8933 31.0981 22.2181 29.0317 22.0534 26.813H32.7401V28.9456ZM32.7401 23.4684H22.2013C22.6447 20.7861 23.8508 18.2959 25.7187 16.2692C27.6168 14.2128 30.0525 12.7557 32.7401 12.0769V23.4684ZM33.9495 6.53347C33.9495 7.42757 33.5262 7.73885 32.4646 7.73885H30.4859C30.4153 7.73885 30.2877 7.7256 30.2877 7.65937V3.20874C30.2877 3.14251 30.4153 3.06966 30.4859 3.06966H32.4478C33.4221 3.06966 33.8152 3.46704 33.8152 4.31809C33.8152 4.79825 33.6774 5.06648 33.2407 5.27511V5.33471C33.6774 5.50029 33.9462 5.82812 33.9462 6.23544L33.9495 6.53347ZM32.2765 4.99032H31.3963V3.96376H32.2765C32.5486 3.96376 32.7401 4.02668 32.7401 4.40088V4.57969C32.7401 4.94065 32.5352 4.99032 32.2765 4.99032ZM32.9081 6.21226V6.47055C32.9081 6.79177 32.7233 6.80832 32.3773 6.80832H31.3963V5.74865H32.3773C32.7233 5.75196 32.9081 5.88773 32.9081 6.21226Z" fill="white"/>
</svg>
